<svg xmlns="http://www.w3.org/2000/svg"  viewBox="0 0 100 100" width="100px" height="100px"><path fill="#c8ede6" d="M87.234,55.551c0.3-0.616,0.566-1.264,0.796-1.943c2.633-7.77-1.349-17.078-9.733-19.325 C77.391,22.9,69.391,15.09,60.356,13.758c-10.341-1.525-19.814,5.044-22.966,15.485c-3.799-1.346-7.501-1.182-10.99,0.857 c-1.583,0.732-3.031,1.812-4.33,3.233c-1.907,2.086-3.147,4.719-3.652,7.495c-0.748,0.118-1.483,0.236-2.176,0.484 c-4.04,1.449-6.589,4.431-7.288,8.923c-0.435,2.797,0.443,5.587,0.933,6.714c1.935,4.455,6.422,6.98,10.981,6.312 c0.227-0.033,0.557,0.069,0.752,0.233c0.241,7.12,3.698,13.417,8.884,17.014c8.321,5.772,19.027,3.994,25.781-3.921 c2.894,2.96,6.338,4.398,10.384,3.876c4.023-0.519,7.147-2.739,9.426-6.349c1.053,0.283,2.051,0.691,3.083,0.804 c4.042,0.442,7.297-1.184,9.732-4.8c0.083-0.124,0.203-0.219,0.306-0.328c0.348-0.798,0.696-1.596,1.044-2.394 c0.155-1.211,0.429-2.423,0.443-3.632C90.742,60.508,89.411,57.54,87.234,55.551z"/><path fill="#fdfcef" d="M31.337,40.423c0,0,11.691,0,11.762,0c2.7,0,4.888-2.189,4.888-4.889 c0-2.355-1.666-4.321-3.884-4.784c0.026-0.206,0.043-0.415,0.043-0.628c0-2.796-2.267-5.063-5.063-5.063 c-1.651,0-3.113,0.794-4.037,2.017c-0.236-3.113-3.017-5.514-6.27-5.116c-2.379,0.291-4.346,2.13-4.784,4.486 c-0.14,0.756-0.126,1.489,0.014,2.177c-0.638-0.687-1.546-1.119-2.557-1.119c-1.85,0-3.361,1.441-3.48,3.261 c-0.84-0.186-1.754-0.174-2.717,0.188c-1.84,0.691-3.15,2.423-3.227,4.387c-0.109,2.789,2.12,5.085,4.885,5.085 c0.21,0,0.948,0,1.118,0h10.151"/><path fill="#472b29" d="M43.099,40.923H31.337c-0.276,0-0.5-0.224-0.5-0.5s0.224-0.5,0.5-0.5h11.762 c2.42,0,4.389-1.969,4.389-4.389c0-2.066-1.466-3.873-3.486-4.295c-0.255-0.053-0.426-0.293-0.394-0.552 c0.023-0.186,0.039-0.374,0.039-0.565c0-2.517-2.047-4.563-4.562-4.563c-1.438,0-2.765,0.663-3.638,1.818 c-0.125,0.166-0.338,0.237-0.54,0.178c-0.199-0.059-0.342-0.234-0.357-0.441c-0.104-1.377-0.779-2.671-1.85-3.549 c-1.083-0.888-2.456-1.282-3.86-1.109c-2.166,0.266-3.956,1.943-4.353,4.081c-0.124,0.667-0.12,1.335,0.013,1.986 c0.044,0.22-0.062,0.442-0.262,0.544c-0.2,0.104-0.443,0.06-0.595-0.104c-0.575-0.618-1.353-0.959-2.19-0.959 c-1.569,0-2.878,1.228-2.981,2.794c-0.01,0.146-0.082,0.279-0.199,0.366c-0.117,0.089-0.268,0.12-0.408,0.089 c-0.841-0.185-1.637-0.132-2.433,0.167c-1.669,0.627-2.835,2.209-2.903,3.938c-0.047,1.207,0.387,2.35,1.221,3.218 c0.835,0.869,1.959,1.348,3.164,1.348h11.269c0.276,0,0.5,0.224,0.5,0.5s-0.224,0.5-0.5,0.5H16.912 c-1.479,0-2.858-0.588-3.884-1.654c-1.025-1.066-1.558-2.469-1.5-3.95c0.083-2.126,1.51-4.069,3.55-4.835 c0.8-0.301,1.626-0.398,2.468-0.299c0.377-1.822,1.998-3.182,3.905-3.182c0.684,0,1.354,0.18,1.944,0.51 c0-0.386,0.035-0.772,0.106-1.159c0.477-2.562,2.621-4.573,5.215-4.891c1.679-0.205,3.32,0.266,4.616,1.328 c1.003,0.823,1.716,1.951,2.038,3.193c1.012-0.916,2.319-1.426,3.714-1.426c3.067,0,5.562,2.496,5.562,5.563 c0,0.083-0.002,0.166-0.007,0.248c2.254,0.673,3.848,2.776,3.848,5.164C48.488,38.507,46.071,40.923,43.099,40.923z"/><path fill="#fdfcef" d="M28.504,29.655c-1.808-0.119-3.365,1.13-3.476,2.789c-0.014,0.206-0.005,0.409,0.025,0.606 c-0.349-0.394-0.865-0.661-1.458-0.7c-1.085-0.071-2.022,0.645-2.158,1.62c-0.197-0.054-0.403-0.09-0.616-0.104 c-1.582-0.104-2.944,0.989-3.042,2.441"/><path fill="#472b29" d="M17.78,36.556c-0.006,0-0.012,0-0.017-0.001c-0.138-0.009-0.242-0.128-0.233-0.266 c0.107-1.587,1.588-2.789,3.308-2.674c0.137,0.009,0.273,0.026,0.409,0.053c0.274-0.968,1.256-1.645,2.366-1.567 c0.425,0.027,0.823,0.159,1.164,0.382c0-0.019,0.002-0.037,0.003-0.056c0.12-1.795,1.787-3.16,3.742-3.021 c0.138,0.009,0.242,0.128,0.233,0.266s-0.124,0.255-0.266,0.232c-1.651-0.105-3.108,1.037-3.21,2.557 c-0.012,0.184-0.004,0.37,0.023,0.553c0.017,0.109-0.041,0.217-0.141,0.264s-0.219,0.022-0.293-0.061 c-0.323-0.365-0.78-0.584-1.287-0.617c-0.951-0.034-1.775,0.556-1.894,1.404c-0.01,0.071-0.05,0.135-0.11,0.175 c-0.06,0.039-0.133,0.051-0.204,0.032c-0.187-0.051-0.377-0.083-0.567-0.097c-1.44-0.092-2.687,0.896-2.775,2.209 C18.02,36.455,17.91,36.556,17.78,36.556z"/><path fill="#fdfcef" d="M45.079,31.323c-1.699-0.801-3.664-0.234-4.389,1.267c-0.09,0.186-0.157,0.379-0.201,0.574"/><path fill="#472b29" d="M40.489,33.414c-0.018,0-0.037-0.002-0.056-0.006c-0.134-0.031-0.219-0.165-0.188-0.3 c0.049-0.217,0.123-0.428,0.219-0.627c0.783-1.621,2.902-2.239,4.721-1.385c0.125,0.06,0.179,0.208,0.12,0.333 c-0.059,0.126-0.209,0.176-0.333,0.12c-1.574-0.744-3.394-0.227-4.058,1.149c-0.08,0.165-0.141,0.34-0.182,0.521 C40.706,33.336,40.603,33.414,40.489,33.414z"/><path fill="#fff" d="M29.899,72h-10.03c-0.276,0-0.5-0.224-0.5-0.5s0.224-0.5,0.5-0.5h10.03c0.276,0,0.5,0.224,0.5,0.5 S30.176,72,29.899,72z M33.28,71.5c0-0.276-0.224-0.5-0.5-0.5h-1.446c-0.276,0-0.5,0.224-0.5,0.5s0.224,0.5,0.5,0.5h1.446 C33.057,72,33.28,71.776,33.28,71.5z M37.335,71.5c0-0.276-0.224-0.5-0.5-0.5h-2.546c-0.276,0-0.5,0.224-0.5,0.5s0.224,0.5,0.5,0.5 h2.546C37.112,72,37.335,71.776,37.335,71.5z M37.335,73.5c0-0.276-0.224-0.5-0.5-0.5h-9.616c-0.276,0-0.5,0.224-0.5,0.5 s0.224,0.5,0.5,0.5h9.616C37.112,74,37.335,73.776,37.335,73.5z M25.987,73.5c0-0.276-0.224-0.5-0.5-0.5h-0.58 c-0.276,0-0.5,0.224-0.5,0.5s0.224,0.5,0.5,0.5h0.58C25.763,74,25.987,73.776,25.987,73.5z M23.611,73.5c0-0.276-0.224-0.5-0.5-0.5 h-1.457c-0.276,0-0.5,0.224-0.5,0.5s0.224,0.5,0.5,0.5h1.457C23.387,74,23.611,73.776,23.611,73.5z M32.746,69.5 c0-0.276-0.224-0.5-0.5-0.5h-5.027c-0.276,0-0.5,0.224-0.5,0.5s0.224,0.5,0.5,0.5h5.027C32.523,70,32.746,69.776,32.746,69.5z M32.746,67.5c0-0.276-0.224-0.5-0.5-0.5h-1.257c-0.276,0-0.5,0.224-0.5,0.5s0.224,0.5,0.5,0.5h1.257 C32.523,68,32.746,67.776,32.746,67.5z M29.477,75.5c0-0.276-0.224-0.5-0.5-0.5h-1.758c-0.276,0-0.5,0.224-0.5,0.5 s0.224,0.5,0.5,0.5h1.758C29.254,76,29.477,75.776,29.477,75.5z"/><path fill="#fff" d="M73.744,26h-10.03c-0.276,0-0.5-0.224-0.5-0.5s0.224-0.5,0.5-0.5h10.031c0.276,0,0.5,0.224,0.5,0.5 S74.021,26,73.744,26z M77.125,25.5c0-0.276-0.224-0.5-0.5-0.5h-1.446c-0.276,0-0.5,0.224-0.5,0.5s0.224,0.5,0.5,0.5h1.446 C76.902,26,77.125,25.776,77.125,25.5z M81.18,25.5c0-0.276-0.224-0.5-0.5-0.5h-2.546c-0.276,0-0.5,0.224-0.5,0.5 s0.224,0.5,0.5,0.5h2.546C80.956,26,81.18,25.776,81.18,25.5z M79.154,21.5c0-0.276-0.224-0.5-0.5-0.5h-9.616 c-0.276,0-0.5,0.224-0.5,0.5s0.224,0.5,0.5,0.5h9.616C78.93,22,79.154,21.776,79.154,21.5z M67.806,21.5c0-0.276-0.224-0.5-0.5-0.5 h-0.58c-0.276,0-0.5,0.224-0.5,0.5s0.224,0.5,0.5,0.5h0.58C67.583,22,67.806,21.776,67.806,21.5z M65.429,21.5 c0-0.276-0.224-0.5-0.5-0.5h-1.456c-0.276,0-0.5,0.224-0.5,0.5s0.224,0.5,0.5,0.5h1.456C65.206,22,65.429,21.776,65.429,21.5z M76.591,23.5c0-0.276-0.224-0.5-0.5-0.5h-5.027c-0.276,0-0.5,0.224-0.5,0.5s0.224,0.5,0.5,0.5h5.027 C76.367,24,76.591,23.776,76.591,23.5z M76.591,21.5c0-0.276-0.224-0.5-0.5-0.5h-1.257c-0.276,0-0.5,0.224-0.5,0.5 s0.224,0.5,0.5,0.5h1.257C76.367,22,76.591,21.776,76.591,21.5z M70.108,23.5c0-0.276-0.224-0.5-0.5-0.5H67.85 c-0.276,0-0.5,0.224-0.5,0.5s0.224,0.5,0.5,0.5h1.758C69.885,24,70.108,23.776,70.108,23.5z"/><path fill="#f4989e" d="M49.5,76.3c-0.896,0-1.8-0.706-1.8-2.285V62.331c0-0.571-0.287-1.099-0.767-1.41 c-0.298-0.191-0.615-0.286-0.94-0.286c-0.934,0-1.693,0.755-1.693,1.683v0.751c0,1.579-0.904,2.285-1.8,2.285 s-1.8-0.706-1.8-2.285v-4.976c0-1.439-0.855-2.192-1.7-2.192s-1.7,0.753-1.7,2.192v1.99c0,1.579-0.904,2.285-1.8,2.285 s-1.8-0.706-1.8-2.285v-4.602c0-2.925-0.137-5.201-0.252-6.596l-0.014-0.177l-0.098-0.148c-1.75-2.681-2.637-5.3-2.637-7.784 c0-5.226,2.595-9.39,6.61-10.607c0.773-0.228,1.561-0.344,2.336-0.344c3.514,0,7.354,2.498,10.536,6.854 c0.395,0.558,1.076,0.896,1.817,0.896s1.423-0.339,1.823-0.905c3.171-4.337,7.052-6.829,10.641-6.829c0.75,0,1.5,0.11,2.229,0.328 c4.013,1.217,6.607,5.381,6.607,10.606c0,4.187-2.459,8.648-7.31,13.262l-0.141,0.133l-0.052,0.187 C65.3,56.152,65.3,57.715,65.3,58.466v10.573c0,1.579-0.904,2.285-1.8,2.285s-1.8-0.706-1.8-2.285v-6.966 c0-1.439-0.855-2.192-1.7-2.192s-1.7,0.753-1.7,2.192v3.98c0,1.579-0.904,2.285-1.8,2.285s-1.8-0.706-1.8-2.285v-1.368 c0-1.439-0.855-2.192-1.7-2.192s-1.7,0.753-1.7,2.192v9.329C51.3,75.594,50.396,76.3,49.5,76.3z"/><path fill="#472b29" d="M39.646,30.525c3.288,0,6.923,2.394,9.959,6.552c0.533,0.751,1.428,1.199,2.394,1.199 s1.862-0.448,2.383-1.183c3.044-4.164,6.719-6.552,10.081-6.552c0.683,0,1.365,0.101,2.022,0.297 c3.714,1.126,6.114,5.027,6.114,9.938c0,3.987-2.386,8.278-7.092,12.754l-0.281,0.267l-0.104,0.373 C64.6,56.058,64.6,57.746,64.6,58.466v10.573c0,1.17-0.593,1.585-1.1,1.585s-1.1-0.415-1.1-1.585v-6.966 c0-1.899-1.207-2.893-2.4-2.893s-2.4,0.993-2.4,2.893v3.98c0,1.17-0.593,1.585-1.1,1.585s-1.1-0.415-1.1-1.585v-1.368 c0-1.899-1.207-2.893-2.4-2.893s-2.4,0.994-2.4,2.893v9.329c0,1.17-0.593,1.585-1.1,1.585s-1.1-0.415-1.1-1.585V62.331 c0-0.81-0.406-1.557-1.107-2.01c-0.391-0.253-0.84-0.386-1.301-0.386c-1.319,0-2.393,1.069-2.393,2.383v0.751 c0,1.17-0.593,1.585-1.1,1.585s-1.1-0.415-1.1-1.585v-4.976c0-1.899-1.207-2.893-2.4-2.893s-2.4,0.994-2.4,2.893v1.99 c0,1.17-0.593,1.585-1.1,1.585s-1.1-0.415-1.1-1.585v-4.602c0-2.947-0.138-5.244-0.254-6.653l-0.029-0.354l-0.194-0.297 c-1.674-2.565-2.523-5.055-2.523-7.401c0-4.911,2.4-8.812,6.102-9.935C38.218,30.632,38.94,30.525,39.646,30.525 M39.646,29.125 c-0.855,0-1.709,0.13-2.539,0.374C32.792,30.807,30,35.235,30,40.777c0,2.836,1.065,5.584,2.751,8.166 C33,51.972,33,54.797,33,55.481c0,2.277,0,0.981,0,4.602c0,1.99,1.25,2.985,2.5,2.985s2.5-0.995,2.5-2.985c0-0.245,0-1.558,0-1.99 c0-0.995,0.5-1.492,1-1.492s1,0.498,1,1.492c0,0,0,0.995,0,4.976c0,1.99,1.25,2.985,2.5,2.985s2.5-0.995,2.5-2.985v-0.751 c0-0.578,0.477-0.983,0.993-0.983c0.182,0,0.368,0.05,0.54,0.162c0.007,0.004,0.013,0.009,0.02,0.013 C46.833,61.691,47,61.997,47,62.331v11.684C47,76.005,48.25,77,49.5,77s2.5-0.995,2.5-2.985c0-0.791,0-8.334,0-9.329 c0-0.995,0.5-1.492,1-1.492s1,0.498,1,1.492v1.368c0,1.99,1.25,2.985,2.5,2.985s2.5-0.995,2.5-2.985c0-3.98,0-3.98,0-3.98 c0-0.995,0.5-1.493,1-1.493s1,0.498,1,1.493c0,2.985,0,6.966,0,6.966c0,1.99,1.25,2.985,2.5,2.985s2.5-0.995,2.5-2.985 c0-3.621,0-8.296,0-10.573c0-0.737,0.004-2.233,0.473-3.922C70.698,50.527,74,45.785,74,40.777c0-5.541-2.792-9.969-7.108-11.278 c-0.787-0.236-1.599-0.357-2.428-0.357c-3.816,0-7.903,2.6-11.212,7.126c-0.271,0.382-0.745,0.609-1.252,0.609 s-0.982-0.228-1.252-0.609C47.431,31.725,43.386,29.125,39.646,29.125L39.646,29.125z"/><path fill="#472b29" d="M49.59,40.871c-0.068,0-0.137-0.028-0.187-0.083c-0.189-0.212-0.459-0.586-0.8-1.059 c-0.893-1.24-2.242-3.113-3.941-4.612c-0.104-0.092-0.114-0.249-0.022-0.353c0.093-0.104,0.25-0.114,0.353-0.022 c1.742,1.536,3.111,3.438,4.018,4.695c0.332,0.461,0.594,0.824,0.767,1.017c0.092,0.103,0.083,0.261-0.02,0.354 C49.709,40.85,49.649,40.871,49.59,40.871z"/><path fill="#472b29" d="M43.183,33.945c-0.045,0-0.09-0.012-0.131-0.037c-1.738-1.073-3.438-1.338-5.059-0.785 c-0.131,0.05-0.272-0.025-0.316-0.156c-0.045-0.13,0.025-0.272,0.156-0.316c1.769-0.604,3.611-0.322,5.48,0.832 c0.118,0.072,0.154,0.227,0.082,0.344C43.349,33.903,43.267,33.945,43.183,33.945z"/><path fill="#472b29" d="M41.829,53.489c-0.06,0-0.119-0.021-0.166-0.063c-1.099-0.979-2.103-1.966-2.984-2.935 c-0.093-0.102-0.086-0.26,0.017-0.353c0.102-0.093,0.261-0.087,0.353,0.017c0.871,0.955,1.862,1.931,2.947,2.897 c0.104,0.092,0.112,0.25,0.021,0.353C41.967,53.461,41.897,53.489,41.829,53.489z"/><path fill="#472b29" d="M51.906,60.5c-0.036,0-0.073-0.008-0.108-0.024c-0.871-0.42-4.234-2.496-4.999-3.024 c-0.113-0.079-0.142-0.234-0.063-0.349c0.079-0.111,0.233-0.139,0.349-0.063c0.736,0.511,4.099,2.585,4.931,2.985 c0.124,0.061,0.177,0.21,0.117,0.334C52.089,60.448,51.999,60.5,51.906,60.5z"/><path fill="#472b29" d="M51.963,60.557c-0.091,0-0.178-0.05-0.223-0.136c-0.063-0.123-0.015-0.273,0.108-0.337 c1.195-0.615,3.625-1.955,6.47-4.022c0.11-0.082,0.268-0.057,0.349,0.056c0.081,0.111,0.057,0.268-0.055,0.349 c-2.872,2.087-5.327,3.441-6.535,4.063C52.041,60.548,52.002,60.557,51.963,60.557z"/><g><path fill="#472b29" d="M60.243,55.162c-0.073,0-0.146-0.032-0.195-0.095c-0.086-0.107-0.068-0.265,0.04-0.351 c3.309-2.632,7.551-6.724,8.974-11.275c0.041-0.132,0.181-0.206,0.313-0.164c0.132,0.041,0.206,0.181,0.164,0.313 c-1.46,4.674-5.775,8.844-9.14,11.518C60.353,55.145,60.298,55.162,60.243,55.162z"/></g><g><path fill="#472b29" d="M69.771,41.382c-0.007,0-0.013,0-0.02-0.001c-0.138-0.011-0.24-0.131-0.229-0.269 c0.392-4.951-2.378-7.902-5.184-8.165c-0.491-0.021-1.005,0.031-1.498,0.156c-0.429,0.107-0.864,0.273-1.296,0.492 c-0.596,0.304-1.19,0.708-1.818,1.239c-0.106,0.087-0.263,0.074-0.353-0.03c-0.089-0.105-0.075-0.263,0.03-0.353 c0.658-0.555,1.284-0.981,1.914-1.302c0.465-0.236,0.936-0.415,1.4-0.531c0.539-0.138,1.099-0.192,1.654-0.171 c3.056,0.286,6.065,3.433,5.647,8.703C70.01,41.282,69.899,41.382,69.771,41.382z"/></g><g><path fill="#472b29" d="M52.5,53.25c-1.242,0-2.5-0.944-2.5-2.75v-4c0-0.321-0.102-0.574-0.301-0.751 C49.521,45.591,49.267,45.5,49,45.5c-0.461,0-1,0.262-1,1v1.875c0,0.276-0.224,0.5-0.5,0.5s-0.5-0.224-0.5-0.5V46.5 c0-2.627,4-2.627,4,0v4c0,1.209,0.753,1.75,1.5,1.75S54,51.709,54,50.5v-7c0-2.158,1.192-4.399,3.646-6.854 c0.195-0.195,0.512-0.195,0.707,0s0.195,0.512,0,0.707C56.097,39.61,55,41.621,55,43.5v7C55,52.306,53.742,53.25,52.5,53.25z"/></g><g><path fill="#472b29" d="M45.5,56.25c-1.242,0-2.5-0.944-2.5-2.75v-9c0-0.738-0.539-1-1-1s-1,0.262-1,1v2 c0,1.867-1.288,2.875-2.5,2.875c-1.244,0-2.5-1.044-2.5-3.375v-3.833c0-0.276,0.224-0.5,0.5-0.5s0.5,0.224,0.5,0.5V46 c0,1.753,0.808,2.375,1.5,2.375c0.728,0,1.5-0.657,1.5-1.875v-2c0-2.627,4-2.627,4,0v9c0,1.209,0.753,1.75,1.5,1.75 S47,54.709,47,53.5v-3.042c0-0.276,0.224-0.5,0.5-0.5s0.5,0.224,0.5,0.5V53.5C48,55.306,46.742,56.25,45.5,56.25z"/></g><g><path fill="#fdfcef" d="M76.908,55.287h7.934c0.133,0,0.71,0,0.874,0c2.161,0,3.903-1.756,3.818-3.889 c-0.06-1.503-1.084-2.828-2.522-3.356c-0.752-0.276-1.466-0.285-2.123-0.143c-0.093-1.392-1.274-2.494-2.72-2.494 c-0.79,0-1.5,0.331-1.998,0.856c0.109-0.526,0.121-1.087,0.011-1.665c-0.342-1.802-1.88-3.208-3.739-3.431 c-2.542-0.305-4.715,1.532-4.9,3.913c-0.722-0.936-1.865-1.543-3.155-1.543c-2.185,0-3.957,1.734-3.957,3.873 c0,0.163,0.014,0.322,0.034,0.48c-1.733,0.355-3.035,1.858-3.035,3.66c0,2.065,1.711,3.739,3.821,3.739c0.023,0,1.657,0,3.54,0 M74.908,55.287h0.36"/><path fill="#472b29" d="M60.931,51.547c0-1.85,1.239-3.483,3.003-4.038c-0.001-0.035-0.001-0.069-0.001-0.103 c0-2.411,1.999-4.373,4.457-4.373c1.056,0,2.051,0.359,2.842,1.007c0.268-0.893,0.798-1.689,1.546-2.302 c1.041-0.853,2.361-1.238,3.726-1.071c2.074,0.248,3.789,1.824,4.17,3.833c0.046,0.243,0.074,0.485,0.083,0.727 c0.437-0.21,0.921-0.323,1.414-0.323c1.506,0,2.791,1.028,3.135,2.424c0.64-0.06,1.27,0.019,1.88,0.244 c1.637,0.602,2.782,2.131,2.849,3.806c0.046,1.149-0.37,2.242-1.173,3.078c-0.813,0.846-1.959,1.331-3.144,1.331h-8.807 c-0.276,0-0.5-0.224-0.5-0.5s0.224-0.5,0.5-0.5h8.807c0.927,0,1.788-0.364,2.423-1.024c0.612-0.637,0.93-1.47,0.895-2.346 c-0.051-1.274-0.933-2.442-2.195-2.905c-0.603-0.223-1.207-0.263-1.846-0.125c-0.142,0.031-0.29-0.002-0.406-0.089 c-0.116-0.088-0.188-0.22-0.198-0.366c-0.076-1.136-1.052-2.027-2.221-2.027c-0.626,0-1.207,0.249-1.635,0.7 c-0.154,0.163-0.397,0.202-0.594,0.1c-0.198-0.104-0.303-0.326-0.258-0.545c0.1-0.482,0.103-0.977,0.009-1.472 c-0.301-1.585-1.661-2.83-3.307-3.027c-1.088-0.126-2.144,0.173-2.973,0.853c-0.804,0.66-1.29,1.584-1.369,2.604 c-0.016,0.206-0.157,0.38-0.355,0.44c-0.198,0.057-0.413-0.01-0.539-0.174c-0.662-0.858-1.668-1.349-2.76-1.349 c-1.906,0-3.457,1.513-3.457,3.373c0,0.142,0.012,0.28,0.03,0.417c0.033,0.26-0.14,0.501-0.396,0.554 c-1.528,0.312-2.636,1.646-2.636,3.17c0,1.786,1.49,3.239,3.321,3.239h3.54c0.276,0,0.5,0.224,0.5,0.5s-0.224,0.5-0.5,0.5h-3.54 C62.868,55.788,60.93,53.886,60.931,51.547z M74.408,55.288c0-0.276,0.224-0.5,0.5-0.5h0.36c0.276,0,0.5,0.224,0.5,0.5 s-0.224,0.5-0.5,0.5h-0.36C74.632,55.788,74.408,55.564,74.408,55.288z"/><g><path fill="#472b29" d="M66.958,49.984c0.018,0,0.036-0.002,0.055-0.006c0.135-0.03,0.22-0.164,0.189-0.299 c-0.037-0.164-0.094-0.325-0.17-0.479c-0.604-1.224-2.272-1.677-3.722-1.007c-0.125,0.058-0.18,0.206-0.122,0.331 c0.058,0.126,0.207,0.179,0.332,0.122c1.201-0.556,2.577-0.208,3.063,0.774c0.058,0.118,0.102,0.242,0.13,0.367 C66.74,49.905,66.843,49.984,66.958,49.984z"/></g><g><path fill="#472b29" d="M72.117,55.788h1.107c0.276,0,0.5-0.224,0.5-0.5s-0.224-0.5-0.5-0.5h-1.107 c-0.276,0-0.5,0.224-0.5,0.5S71.84,55.788,72.117,55.788z"/></g></g><g><path fill="#472b29" d="M34.82,44.313c-0.082,0-0.163-0.041-0.211-0.116c-1.646-2.589-1.201-5.318-0.789-6.715 c0.497-1.686,1.476-3.193,2.325-3.584c0.125-0.058,0.273-0.003,0.332,0.123c0.058,0.126,0.002,0.274-0.123,0.332 c-0.611,0.28-1.539,1.522-2.055,3.27c-0.388,1.315-0.809,3.884,0.731,6.307c0.074,0.116,0.04,0.271-0.077,0.345 C34.913,44.3,34.866,44.313,34.82,44.313z"/></g></svg>