<svg fill="#000000" xmlns="http://www.w3.org/2000/svg"  viewBox="0 0 55 55" width="99px" height="99px"><path d="M 27.501953 3.0234375 C 29.914978 3.135376 32.284485 3.6989744 34.455078 4.6699219 C 36.624451 5.6466065 38.583618 7.0488281 40.193359 8.7617188 C 43.45166 12.164795 45.237549 16.825073 45.15625 21.453125 C 45.078857 26.080689 43.164856 30.61865 39.869141 33.820312 C 36.61377 37.052612 32.08124 38.919067 27.503906 38.886719 C 22.92804 38.917114 18.394348 37.052612 15.140625 33.818359 C 11.842835 30.618895 9.92865 26.081543 9.8496094 21.455078 C 9.7677613 16.828125 11.556885 12.169922 14.814453 8.7675781 C 16.423157 7.0540771 18.38031 5.6499023 20.548828 4.671875 C 22.718689 3.6997068 25.088928 3.1361084 27.501953 3.0234375 z M 27.501953 3.0234375 C 22.661743 2.7791748 17.724426 4.6737063 14.121094 8.0742188 C 10.516663 11.482178 8.3383789 16.415039 8.2890625 21.455078 C 8.1777344 26.496094 10.236755 31.54785 13.800781 35.158203 C 14.080505 35.443359 14.386047 35.700684 14.683594 35.966797 C 13.752441 37.321045 12.830139 38.681763 11.929688 40.054688 C 10.869873 41.668335 9.8181153 43.286987 8.796875 44.923828 C 8.6963501 45.084839 8.6464844 45.278809 8.6660156 45.482422 C 8.7131958 45.974365 9.1506347 46.336182 9.6425781 46.289062 L 9.6835938 46.285156 C 11.740479 46.087769 13.790588 45.836182 15.841797 45.59375 C 16.568726 47.521973 17.325256 49.440552 18.066406 51.363281 L 18.078125 51.392578 C 18.154053 51.589233 18.296204 51.761352 18.494141 51.873047 C 18.947449 52.128784 19.521668 51.968994 19.777344 51.515625 C 20.849792 49.61438 21.961426 47.736938 23.001953 45.816406 C 23.927063 44.156616 24.820984 42.477051 25.708984 40.794922 C 26.999853 40.918793 28.035585 40.913013 29.277344 40.794922 C 32.319002 46.541153 33.500305 48.490143 35.222656 51.517578 C 35.327393 51.701538 35.493958 51.852051 35.707031 51.933594 C 36.195862 52.120728 36.744446 51.877441 36.931641 51.388672 L 36.939453 51.363281 C 37.676575 49.43811 38.43866 47.522949 39.160156 45.591797 C 44.198009 46.190216 44.782242 46.21891 45.361328 46.28125 C 45.54895 46.299439 45.743713 46.259766 45.916016 46.152344 C 46.332459 45.892822 46.458679 45.344238 46.199219 44.927734 C 45.178894 43.290283 44.12262 41.674561 43.066406 40.058594 C 42.544861 39.246826 41.993286 38.453369 41.457031 37.650391 C 41.082397 37.088257 40.698425 36.531006 40.314453 35.974609 C 40.61554 35.705322 40.922241 35.443115 41.205078 35.154297 C 44.769226 31.543333 46.822327 26.49231 46.710938 21.453125 C 46.661682 16.414551 44.485291 11.479736 40.880859 8.0722656 C 37.278076 4.6713867 32.341799 2.7805176 27.501953 3.0234375 z M 27.503906 9.0214844 C 24.249023 9.0272217 21.012573 10.37439 18.75 12.701172 C 16.486938 15.017822 15.186707 18.249023 15.291016 21.453125 C 15.345764 24.657959 16.771667 27.768066 19.072266 29.882812 C 21.380981 31.981079 24.496582 33.125488 27.501953 32.888672 C 24.510071 32.671997 21.677429 31.351807 19.761719 29.193359 C 17.80658 27.082764 16.769897 24.245483 16.845703 21.453125 C 16.930115 18.660278 18.089661 15.94458 20.083984 14.037109 C 22.047546 12.108398 24.762024 10.994751 27.503906 11.021484 C 30.245605 10.998169 32.959778 12.107056 34.919922 14.039062 C 36.914551 15.946045 38.069153 18.663086 38.154297 21.455078 C 38.229919 24.246704 37.19519 27.085815 35.240234 29.195312 C 33.325806 31.354126 30.493591 32.670654 27.501953 32.888672 C 30.507141 33.126953 33.623169 31.984741 35.933594 29.886719 C 38.235291 27.771362 39.65918 24.660278 39.714844 21.455078 C 39.82019 18.25061 38.521606 15.018066 36.259766 12.699219 C 33.994995 10.374146 30.758728 9.0250245 27.503906 9.0214844 z M 32.595703 17.138672 C 31.7973 17.581177 31.080566 18.096069 30.398438 18.642578 C 29.710998 19.184326 29.070251 19.768433 28.453125 20.373047 C 27.449768 21.360596 26.534851 22.42627 25.673828 23.541016 C 25.020752 22.80127 24.319824 22.092163 23.507812 21.455078 C 23.848938 22.839111 24.400268 24.087891 25 25.304688 C 25.030518 25.365845 25.070862 25.42749 25.119141 25.480469 C 25.401245 25.790283 25.881653 25.811401 26.191406 25.529297 L 26.326172 25.408203 C 27.607727 24.241333 28.779297 22.97644 29.845703 21.617188 C 30.37738 20.936279 30.884277 20.234009 31.345703 19.490234 C 31.812378 18.751221 32.245361 17.981567 32.595703 17.138672 z M 39.607422 36.591797 C 39.893432 37.142944 40.176819 37.695557 40.470703 38.242188 C 41.406261 39.986214 41.12067 39.535595 43.765625 44.242188 C 42.056091 43.996338 40.344666 43.764404 38.632812 43.537109 C 38.196228 43.479248 37.759827 43.723999 37.591797 44.152344 C 37.357307 44.770233 37.343914 44.728367 35.818359 48.869141 C 35.005127 47.575439 34.191284 46.281738 33.351562 45.003906 C 32.4021 43.533936 31.423645 42.082031 30.443359 40.630859 C 33.78351 40.104004 36.980652 38.711426 39.607422 36.591797 z M 15.404297 36.59375 C 18.034302 38.713135 21.231323 40.107788 24.574219 40.632812 C 23.591248 42.084717 22.610718 43.538452 21.660156 45.009766 C 20.813416 46.286743 20.000427 47.582886 19.185547 48.878906 C 17.716705 44.894188 17.635426 44.73904 17.414062 44.152344 C 17.254211 43.739014 16.827576 43.473389 16.369141 43.535156 C 14.662109 43.764893 12.955383 43.993042 11.25 44.236328 C 12.84055 41.414475 13.519481 40.216751 15.404297 36.59375 z"/></svg>