<svg xmlns="http://www.w3.org/2000/svg"  viewBox="0 0 48 48" width="48px" height="48px"><rect width="24.597" height="4" x="13.702" y="14.5" fill="#6c19ff" transform="rotate(-26.565 26 16.5)"/><rect width="4" height="24.597" x="24" y="19.202" fill="#6c19ff" transform="rotate(-63.435 26 31.501)"/><circle cx="11" cy="24" r="7" fill="#3ddab4"/><circle cx="37" cy="37" r="7" fill="#3ddab4"/><circle cx="37" cy="11" r="7" fill="#3ddab4"/><path fill="#00b569" d="M30.105,12.211c0.239,1.371,0.877,2.605,1.79,3.578l6-3l-1.789-3.578L30.105,12.211z"/><path fill="#00b569" d="M30.105,35.789l6.001,3l1.789-3.578l-6-3C30.982,33.184,30.344,34.418,30.105,35.789z"/><path fill="#3ddab4" d="M16.515,28.31C17.464,27.089,18.001,25.548,18,24c0-1.759-0.693-3.508-1.897-4.79 c-0.317,0.159-0.633,0.317-0.95,0.476c-0.158,0.079-0.317,0.159-0.475,0.238c-0.136,0.068-0.363,0.136-0.463,0.245 c0.239,0.256,0.503,0.476,0.719,0.757c0.215,0.278,0.4,0.579,0.554,0.895c0.306,0.632,0.484,1.329,0.506,2.032 c0.002,0.049,0.002,0.098,0.002,0.148c0,1.458-0.675,2.903-1.793,3.838c0.634,0.317,1.267,0.634,1.901,0.951 C16.249,28.637,16.386,28.476,16.515,28.31z"/></svg>